<?xml version="1.0" encoding="utf-8"?>
<!-- Generator: Adobe Illustrator 16.0.0, SVG Export Plug-In . SVG Version: 6.00 Build 0)  -->
<!DOCTYPE svg PUBLIC "-//W3C//DTD SVG 1.1//EN" "http://www.w3.org/Graphics/SVG/1.1/DTD/svg11.dtd">
<svg version="1.1" id="Capa_1" xmlns="http://www.w3.org/2000/svg" xmlns:xlink="http://www.w3.org/1999/xlink" x="0px" y="0px"
	 width="148px" height="149.666px" viewBox="0 0 148 149.666" enable-background="new 0 0 148 149.666" xml:space="preserve">
<path fill="#F7A600" d="M120.579,366.983l0.002,0.002l0.015-0.012v-0.018C120.589,366.967,120.587,366.976,120.579,366.983z"/>
<polygon fill="#F7A600" points="120.587,366.987 120.589,366.985 120.587,366.985 "/>
<polygon fill="#F7A600" points="120.587,366.985 120.589,366.985 120.587,366.983 "/>
<path fill="#F9A51A" d="M74.68,82.538l0.002,0.002l0.014-0.012v-0.018C74.689,82.521,74.688,82.528,74.68,82.538z"/>
<polygon fill="#F9A51A" points="74.688,82.542 74.689,82.54 74.688,82.54 "/>
<polygon fill="#F9A51A" points="74.688,82.54 74.689,82.54 74.688,82.538 "/>
<path fill="#F9A51A" d="M72.905,90.105l0.001,0.001l0.01-0.008v-0.013C72.912,90.093,72.911,90.099,72.905,90.105z"/>
<polygon fill="#F9A51A" points="72.911,90.108 72.912,90.106 72.911,90.106 "/>
<polygon fill="#F9A51A" points="72.911,90.106 72.912,90.106 72.911,90.105 "/>
<g>
	<path fill="#58595B" d="M52.39,130.668c0,4.43-3.519,7.799-8.233,7.799c-4.692,0-8.21-3.346-8.21-7.799
		c0-4.432,3.518-7.712,8.21-7.712C48.871,122.956,52.39,126.26,52.39,130.668z M39.898,130.691c0,2.563,1.979,4.538,4.302,4.538
		c2.345,0,4.215-1.976,4.215-4.538c0-2.564-1.87-4.498-4.215-4.498S39.898,128.127,39.898,130.691z"/>
	<path fill="#58595B" d="M69.592,130.668c0,4.43-3.518,7.799-8.232,7.799c-4.691,0-8.209-3.346-8.209-7.799
		c0-4.432,3.518-7.712,8.209-7.712C66.074,122.956,69.592,126.26,69.592,130.668z M57.104,130.691c0,2.563,1.975,4.538,4.3,4.538
		c2.345,0,4.213-1.976,4.213-4.538c0-2.564-1.868-4.498-4.213-4.498C59.058,126.193,57.104,128.127,57.104,130.691z"/>
	<path fill="#58595B" d="M76.979,123.088c3.888,0,6.123,1.911,6.123,5.3c0,3.563-2.235,5.625-6.123,5.625h-2.759
		c0,0,0,1.242,0,2.446c0,0.891-0.864,1.827-1.833,1.827c-0.874,0-2.031,0.004-2.031,0.004v-15.202H76.979z M74.219,130.972h2.563
		c1.694,0,2.672-0.847,2.672-2.454c0-1.584-0.978-2.39-2.672-2.39h-2.563V130.972z"/>
	<path fill="#58595B" d="M95.918,124.651c0,0-0.732,0.846-1.275,1.488c-0.604,0.711-1.309,0.924-2.154,0.529
		c-0.971-0.465-2.028-0.584-2.893-0.584c-0.999,0-1.67,0.369-1.67,1.105c0,2.632,8.035,1.13,8.035,6.627
		c0,3.043-2.692,4.649-6.08,4.649c-2.544,0-5.148-0.956-6.952-2.434c0,0,0.749-0.89,1.162-1.375c0.6-0.709,1.411-0.771,2.025-0.487
		c1.747,0.833,2.52,1.167,3.808,1.167c1.215,0,1.977-0.455,1.977-1.326c0-2.691-8.038-1.085-8.038-6.47
		c0-2.804,2.411-4.584,6.062-4.584C92.117,122.958,94.354,123.63,95.918,124.651z"/>
	<path fill="#58595B" d="M113.167,130.668c0,4.43-3.52,7.799-8.231,7.799c-4.694,0-8.212-3.346-8.212-7.799
		c0-4.432,3.518-7.712,8.212-7.712C109.647,122.956,113.167,126.26,113.167,130.668z M100.677,130.691
		c0,2.563,1.978,4.538,4.302,4.538c2.344,0,4.211-1.976,4.211-4.538c0-2.564-1.867-4.498-4.211-4.498
		C102.631,126.193,100.677,128.127,100.677,130.691z"/>
	<path fill="#58595B" d="M124.243,138.293h-10.314v-15.205c0,0,1.405-0.006,1.955-0.006c0.909,0,1.909,0.693,1.909,1.929
		c0,2.639,0,9.415,0,9.415s2.938,0,4.828,0c0.725,0,1.618,0.636,1.618,1.596C124.239,136.463,124.243,138.293,124.243,138.293z"/>
	<path fill="#58595B" d="M35.952,125.436c0,0-0.75,0.824-1.189,1.342c-0.616,0.729-1.625,0.886-2.343,0.333
		c-0.927-0.812-2.06-0.917-2.654-0.917c-2.411,0-4.235,1.913-4.235,4.411c0,2.541,1.889,4.625,4.301,4.625
		c0.833,0,1.72-0.238,2.535-0.89c0.656-0.443,1.44-0.405,1.976,0.049c0.759,0.643,1.7,1.463,1.7,1.463
		c-1.902,2.005-4.234,2.615-6.471,2.615c-4.583,0-7.995-3.369-7.995-7.82c0-4.387,3.499-7.69,8.125-7.69
		C31.959,122.956,34.179,123.625,35.952,125.436z"/>
</g>
<g>
	<polygon fill="#FFCA05" points="110.804,46.137 110.801,46.134 110.801,46.137 	"/>
	<g>
		<path fill="#F5ACCC" d="M35.457,77.357l-0.005-0.007h-0.003v-0.003l0,0v22.069h22.069l-0.009-0.007
			C47.552,95.277,39.589,87.314,35.457,77.357z"/>
		<path fill="#F5ACCC" d="M88.738,99.41l-0.01,0.007h22.072V77.348l-0.013,0.01C106.656,87.314,98.698,95.277,88.738,99.41z"/>
		<path fill="#F5ACCC" d="M57.509,24.077l0.004-0.007v-0.002v0.002l0.005-0.002H35.449v22.066l0.008-0.009
			C39.589,36.167,47.552,28.203,57.509,24.077z"/>
		<path fill="#F5ACCC" d="M110.788,46.125l0.013,0.009V24.067H88.729l0.01,0.009C98.698,28.203,106.656,36.167,110.788,46.125z"/>
		<path fill="#F5ACCC" d="M73.124,20.972c5.523,0,10.788,1.105,15.592,3.096h0.006l0.007-0.003v0.003l0,0L73.124,8.459
			L57.518,24.067h0.013C62.338,22.077,67.599,20.972,73.124,20.972z"/>
		<path fill="#F5ACCC" d="M110.801,46.153c1.991,4.799,3.093,10.067,3.093,15.588c0,5.525-1.102,10.789-3.093,15.594v0.013
			l15.605-15.607l-15.603-15.604h-0.003V46.153z"/>
		<path fill="#F5ACCC" d="M32.354,61.741c0-5.521,1.101-10.789,3.095-15.588v-0.019L19.84,61.741l15.608,15.607v-0.013
			C33.455,72.529,32.354,67.266,32.354,61.741z"/>
		<path fill="#F5ACCC" d="M73.124,102.513c-5.524,0-10.79-1.104-15.592-3.096h-0.013l15.605,15.608l15.576-15.573l-0.022-0.02
			C83.883,101.414,78.632,102.513,73.124,102.513z"/>
	</g>
	<polygon fill="#FFCA05" points="88.729,99.417 88.729,99.423 88.729,99.417 	"/>
	<polygon fill="#FFCA05" points="35.452,77.351 35.457,77.357 35.456,77.351 	"/>
	<polygon fill="#FFCA05" points="110.801,46.153 110.801,46.137 110.798,46.143 	"/>
	<polygon fill="#FFCA05" points="88.722,24.067 88.716,24.067 88.722,24.069 	"/>
	<polygon fill="#FFCA05" points="88.729,99.414 88.729,99.417 88.729,99.417 88.738,99.41 	"/>
	<polygon fill="#FFCA05" points="57.513,24.069 57.509,24.077 57.513,24.072 	"/>
	<path fill="#FFCA05" d="M110.791,77.348l0.007,0.003h-0.007c0,0.003-0.003,0.003-0.003,0.007l0.013-0.01v-0.013
		C110.798,77.338,110.798,77.344,110.791,77.348z"/>
	<polygon fill="#FFCA05" points="35.457,46.125 35.449,46.134 35.452,46.134 	"/>
	<path fill="#FFCA05" d="M35.452,77.348c0-0.006-0.003-0.01-0.003-0.013v0.013l0,0H35.452z"/>
	<polygon fill="#FFCA05" points="57.521,99.414 57.518,99.417 57.518,99.414 57.509,99.41 57.518,99.417 57.531,99.417 	"/>
	<path fill="#FFCA05" d="M35.452,46.137l-0.003-0.003v0.019C35.449,46.146,35.452,46.143,35.452,46.137z"/>
	<polygon fill="#FFCA05" points="88.729,24.069 88.738,24.077 88.729,24.067 88.729,24.067 	"/>
	<path fill="#FFCA05" d="M110.798,46.137h0.003v-0.003l-0.013-0.009C110.791,46.127,110.791,46.134,110.798,46.137z"/>
	<polygon fill="#FFCA05" points="57.518,24.072 57.531,24.067 57.518,24.067 57.513,24.069 	"/>
	<g>
		<path fill="#C53D95" d="M110.788,46.125c-4.132-9.957-12.09-17.921-22.05-22.048c-0.004-0.004-0.01-0.004-0.01-0.007v22.067
			h22.069C110.791,46.134,110.791,46.127,110.788,46.125z"/>
		<path fill="#C53D95" d="M57.513,24.072c-0.002,0-0.002,0-0.004,0.004c-9.957,4.126-17.92,12.091-22.052,22.048
			c-0.001,0.002-0.001,0.006-0.005,0.009h22.061V24.072z"/>
		<path fill="#C53D95" d="M88.729,77.351v22.063c0,0,0.006-0.004,0.01-0.004c9.96-4.133,17.918-12.096,22.05-22.053
			c0-0.004,0.003-0.004,0.003-0.007H88.729z"/>
		<path fill="#C53D95" d="M88.716,24.067c-4.805-1.991-10.069-3.096-15.592-3.096c-5.524,0-10.785,1.105-15.592,3.096
			c-0.005,0-0.011,0.002-0.013,0.005l15.599,15.6l15.604-15.603C88.719,24.067,88.716,24.067,88.716,24.067z"/>
		<path fill="#C53D95" d="M35.452,46.137c0,0.006-0.003,0.01-0.003,0.016c-1.994,4.799-3.095,10.067-3.095,15.588
			c0,5.525,1.101,10.789,3.095,15.594c0,0.003,0.003,0.007,0.003,0.013l15.589-15.594L35.452,46.137z"/>
		<path fill="#C53D95" d="M110.801,46.153c0-0.003-0.003-0.006-0.003-0.01L95.192,61.747l15.599,15.601
			c0.007-0.004,0.007-0.01,0.01-0.013c1.991-4.806,3.093-10.069,3.093-15.594C113.894,56.22,112.792,50.952,110.801,46.153z"/>
		<path fill="#C53D95" d="M57.513,77.351H35.456c0,0.003,0,0.003,0.001,0.007c4.132,9.957,12.095,17.92,22.052,22.053
			c0.001,0,0.004,0,0.009,0.004L57.513,77.351z"/>
		<path fill="#C53D95" d="M88.662,99.417L73.098,83.835L57.521,99.414c0.002,0,0.006,0.003,0.011,0.003
			c4.802,1.991,10.068,3.096,15.592,3.096c5.508,0,10.759-1.099,15.553-3.08L88.662,99.417z"/>
	</g>
	<polygon fill="#F05C22" points="88.729,24.064 88.722,24.067 88.729,24.067 	"/>
	<path fill="#F05C22" d="M88.729,24.069v-0.002h-0.007v0.002C88.722,24.069,88.722,24.069,88.729,24.069z"/>
	<polygon fill="#F05C22" points="57.513,24.067 57.513,24.069 57.513,24.069 	"/>
	<rect x="57.513" y="24.071" fill="#F05C22" width="0.006" height="0"/>
	<path fill="#F6921E" d="M66.662,46.137h-0.006l-0.002,0.006C66.656,46.137,66.659,46.137,66.662,46.137z"/>
	<path fill="#F6921E" d="M57.513,68.197v0.035l0.027,0.026C57.531,68.238,57.523,68.216,57.513,68.197z"/>
	<polygon fill="#F6921E" points="57.521,55.274 57.513,55.281 57.513,55.286 	"/>
	<path fill="#F6921E" d="M79.575,77.351h0.012l0.007-0.007C79.587,77.348,79.58,77.348,79.575,77.351z"/>
	<polygon fill="#F6921E" points="88.729,68.213 88.729,68.213 88.729,68.213 	"/>
	<path fill="#F6921E" d="M66.592,77.315l0.029,0.035h0.052C66.644,77.338,66.618,77.332,66.592,77.315z"/>
	<polygon fill="#F05C22" points="110.801,46.137 110.804,46.137 110.801,46.137 	"/>
	<polygon fill="#F05C22" points="110.801,46.137 110.801,46.137 110.798,46.137 110.798,46.143 	"/>
	<polygon fill="#F05C22" points="57.518,99.417 57.521,99.414 57.518,99.414 	"/>
	<polygon fill="#F05C22" points="88.729,99.483 88.729,99.423 88.699,99.452 	"/>
	<path fill="#F05C22" d="M88.716,99.417c-0.014,0.006-0.026,0.01-0.039,0.016l0.022,0.02l0.029-0.029v-0.006H88.716z"/>
	<path fill="#F05C22" d="M88.716,99.417h0.013v-0.003C88.722,99.414,88.719,99.417,88.716,99.417z"/>
	<path fill="#F05C22" d="M88.677,99.433c0.013-0.006,0.025-0.01,0.039-0.016h-0.054L88.677,99.433z"/>
	<polygon fill="#F05C22" points="110.798,77.351 110.791,77.348 110.791,77.351 	"/>
	<polygon fill="#F05C22" points="35.449,77.351 35.452,77.351 35.449,77.348 	"/>
	<rect x="35.45" y="77.347" fill="#F05C22" width="0.003" height="0.005"/>
	<g>
		<path fill="#1B1464" d="M88.729,55.274v-9.138h-9.142C83.712,47.849,87.011,51.147,88.729,55.274z"/>
		<path fill="#1B1464" d="M66.653,46.143l0.002-0.006l-9.143-0.003v9.147l0.007-0.006C59.231,51.148,62.528,47.853,66.653,46.143z"
			/>
		<path fill="#1B1464" d="M73.124,44.853c2.285,0,4.47,0.458,6.457,1.281l-6.463-6.461l-6.461,6.464h0.006
			C68.653,45.312,70.833,44.853,73.124,44.853z"/>
		<path fill="#1B1464" d="M88.729,68.213L88.729,68.213l6.464-6.466l-6.464-6.463c0.825,1.989,1.281,4.169,1.281,6.457
			C90.01,64.035,89.554,66.216,88.729,68.213z"/>
		<path fill="#1B1464" d="M73.124,78.629c-2.286,0-4.465-0.456-6.45-1.278h-0.052l6.477,6.484l6.489-6.484h-0.012
			C77.586,78.173,75.408,78.629,73.124,78.629z"/>
		<path fill="#1B1464" d="M88.729,68.213c-1.715,4.121-5.014,7.417-9.135,9.131l-0.007,0.007h9.142V68.213L88.729,68.213z"/>
		<path fill="#1B1464" d="M56.236,61.741c0-2.288,0.457-4.464,1.277-6.455v-0.005l-6.472,6.473l6.472,6.479v-0.035
			C56.693,66.206,56.236,64.028,56.236,61.741z"/>
		<path fill="#1B1464" d="M57.541,68.258l-0.027-0.026v9.119h9.108l-0.029-0.035C62.51,75.606,59.249,72.334,57.541,68.258z"/>
	</g>
	<polygon fill="#F05C22" points="35.452,46.134 35.449,46.134 35.452,46.137 	"/>
	<g>
		<path fill="#6F2C90" d="M73.117,39.672l6.463,6.461c0,0,0.004,0.003,0.007,0.003h9.142V24.069c-0.007,0-0.007,0-0.007,0
			L73.117,39.672z"/>
		<polygon fill="#6F2C90" points="57.513,46.134 66.656,46.137 73.117,39.672 57.518,24.072 57.513,24.072 		"/>
		<polygon fill="#6F2C90" points="88.729,55.274 88.729,55.284 95.192,61.747 110.798,46.143 110.798,46.137 88.729,46.137 		"/>
		<polygon fill="#6F2C90" points="66.622,77.351 57.513,77.351 57.518,99.414 57.521,99.414 73.098,83.835 		"/>
		<path fill="#6F2C90" d="M88.729,77.351h-9.142l-6.489,6.484l15.564,15.582h0.054c0.003,0,0.006-0.003,0.013-0.003V77.351z"/>
		<polygon fill="#6F2C90" points="88.729,68.213 88.729,77.351 110.791,77.351 110.791,77.348 95.192,61.747 		"/>
		<polygon fill="#6F2C90" points="57.513,77.351 57.513,68.232 51.042,61.753 35.452,77.348 35.456,77.351 		"/>
		<polygon fill="#6F2C90" points="57.513,55.281 57.513,46.134 35.452,46.134 35.452,46.137 51.042,61.753 		"/>
	</g>
	<polygon fill="#FFFFFF" points="79.587,46.137 79.584,46.134 79.584,46.137 	"/>
	<polygon fill="#FFFFFF" points="88.729,55.284 88.729,55.274 88.729,55.278 	"/>
</g>
<g>
	<path fill="#7D2A8F" d="M67.526,143.408c1.315,0,2.072,0.646,2.072,1.792c0,1.206-0.756,1.904-2.072,1.904h-0.934
		c0,0,0,0.42,0,0.828c0,0.301-0.292,0.617-0.621,0.617c-0.295,0-0.688,0.002-0.688,0.002v-5.144H67.526z M66.592,146.075h0.867
		c0.574,0,0.905-0.287,0.905-0.83c0-0.536-0.331-0.809-0.905-0.809h-0.867V146.075z"/>
	<g>
		<path fill="#7D2A8F" d="M91.197,145.965c0,1.5-1.189,2.638-2.785,2.638c-1.587,0-2.777-1.131-2.777-2.638
			c0-1.498,1.19-2.608,2.777-2.608C90.008,143.356,91.197,144.473,91.197,145.965z M86.973,145.973c0,0.867,0.668,1.535,1.454,1.535
			c0.794,0,1.427-0.668,1.427-1.535s-0.633-1.522-1.427-1.522C87.634,144.45,86.973,145.105,86.973,145.973z"/>
	</g>
	<path fill="#7D2A8F" d="M52.821,147.522h-2.285v-1.036h2.455v-1.028h-2.455v-1.021h2.205c0.284,0,0.514-0.23,0.514-0.515v-0.514
		h-0.514h-3.513v5.144h3.593h0.514v-0.515C53.335,147.753,53.105,147.522,52.821,147.522z"/>
	<path fill="#7D2A8F" d="M82.406,147.522h-2.287v-1.036h2.455v-1.028h-2.455v-1.021h2.205c0.283,0,0.515-0.23,0.515-0.515v-0.514
		h-0.515h-3.513v5.144h3.595h0.513v-0.515C82.919,147.753,82.689,147.522,82.406,147.522z"/>
	<path fill="#7D2A8F" d="M98.103,143.914c0,0-0.25,0.286-0.433,0.504c-0.205,0.24-0.442,0.313-0.729,0.18
		c-0.329-0.157-0.686-0.198-0.979-0.198c-0.338,0-0.565,0.125-0.565,0.375c0,0.89,2.719,0.382,2.719,2.241
		c0,1.028-0.91,1.572-2.058,1.572c-0.859,0-1.74-0.323-2.351-0.822c0,0,0.254-0.302,0.393-0.466
		c0.204-0.239,0.478-0.261,0.685-0.165c0.593,0.282,0.854,0.396,1.289,0.396c0.41,0,0.669-0.154,0.669-0.449
		c0-0.91-2.719-0.367-2.719-2.188c0-0.948,0.816-1.551,2.05-1.551C96.815,143.342,97.572,143.569,98.103,143.914z"/>
	<path fill="#7D2A8F" d="M61.171,143.393c-0.333,0-0.622,0.188-0.767,0.463l-0.041,0.088l-1.145,2.514l-1.152-2.526l-0.008-0.02
		c-0.137-0.306-0.441-0.519-0.796-0.519h-0.873v0.873v3.694v0.585h0.584c0.323,0,0.584-0.262,0.584-0.585v-2.76l1.234,2.83h0.853
		l1.235-2.83l0.005,2.763c0,0.001,0,0.003,0,0.004c0,0.002,0,0.004,0,0.006c0.003,0.316,0.261,0.572,0.578,0.572h0.578v-0.578
		v-3.704v-0.87H61.171z"/>
	<path fill="#7D2A8F" d="M75.979,148.536h-3.488v-5.141c0,0,0.475-0.003,0.661-0.003c0.307,0,0.645,0.234,0.645,0.652
		c0,0.893,0,3.185,0,3.185s0.995,0,1.634,0c0.244,0,0.546,0.215,0.546,0.539C75.977,147.919,75.979,148.536,75.979,148.536z"/>
</g>
</svg>
