<?xml version="1.0" encoding="utf-8"?>
<!-- Generator: Adobe Illustrator 16.0.0, SVG Export Plug-In . SVG Version: 6.00 Build 0)  -->
<!DOCTYPE svg PUBLIC "-//W3C//DTD SVG 1.1//EN" "http://www.w3.org/Graphics/SVG/1.1/DTD/svg11.dtd">
<svg version="1.1" id="Capa_1" xmlns="http://www.w3.org/2000/svg" xmlns:xlink="http://www.w3.org/1999/xlink" x="0px" y="0px"
	 width="148px" height="149.666px" viewBox="0 0 148 149.666" enable-background="new 0 0 148 149.666" xml:space="preserve">
<path fill="#F7A600" d="M120.579,366.983l0.002,0.002l0.015-0.012v-0.018C120.589,366.967,120.587,366.976,120.579,366.983z"/>
<polygon fill="#F7A600" points="120.587,366.987 120.589,366.985 120.587,366.985 "/>
<polygon fill="#F7A600" points="120.587,366.985 120.589,366.985 120.587,366.983 "/>
<path fill="#F9A51A" d="M74.68,82.538l0.002,0.002l0.014-0.012v-0.018C74.689,82.521,74.688,82.528,74.68,82.538z"/>
<polygon fill="#F9A51A" points="74.688,82.542 74.689,82.54 74.688,82.54 "/>
<polygon fill="#F9A51A" points="74.688,82.54 74.689,82.54 74.688,82.538 "/>
<path fill="#F9A51A" d="M72.905,90.105l0.001,0.001l0.01-0.008v-0.013C72.912,90.093,72.911,90.099,72.905,90.105z"/>
<polygon fill="#F9A51A" points="72.911,90.108 72.912,90.106 72.911,90.106 "/>
<polygon fill="#F9A51A" points="72.911,90.106 72.912,90.106 72.911,90.105 "/>
<g>
	<path fill="#58595B" d="M52.39,130.668c0,4.43-3.519,7.799-8.233,7.799c-4.692,0-8.21-3.346-8.21-7.799
		c0-4.432,3.518-7.712,8.21-7.712C48.871,122.956,52.39,126.26,52.39,130.668z M39.898,130.691c0,2.563,1.979,4.538,4.302,4.538
		c2.345,0,4.215-1.976,4.215-4.538c0-2.564-1.87-4.498-4.215-4.498S39.898,128.127,39.898,130.691z"/>
	<path fill="#58595B" d="M69.592,130.668c0,4.43-3.518,7.799-8.232,7.799c-4.691,0-8.209-3.346-8.209-7.799
		c0-4.432,3.518-7.712,8.209-7.712C66.074,122.956,69.592,126.26,69.592,130.668z M57.104,130.691c0,2.563,1.975,4.538,4.3,4.538
		c2.345,0,4.213-1.976,4.213-4.538c0-2.564-1.868-4.498-4.213-4.498C59.058,126.193,57.104,128.127,57.104,130.691z"/>
	<path fill="#58595B" d="M76.979,123.088c3.888,0,6.123,1.911,6.123,5.3c0,3.563-2.235,5.625-6.123,5.625h-2.759
		c0,0,0,1.242,0,2.446c0,0.891-0.864,1.827-1.833,1.827c-0.874,0-2.031,0.004-2.031,0.004v-15.202H76.979z M74.219,130.972h2.563
		c1.694,0,2.672-0.847,2.672-2.454c0-1.584-0.978-2.39-2.672-2.39h-2.563V130.972z"/>
	<path fill="#58595B" d="M95.918,124.651c0,0-0.732,0.846-1.275,1.488c-0.604,0.711-1.309,0.924-2.154,0.529
		c-0.971-0.465-2.028-0.584-2.893-0.584c-0.999,0-1.67,0.369-1.67,1.105c0,2.632,8.035,1.13,8.035,6.627
		c0,3.043-2.692,4.649-6.08,4.649c-2.544,0-5.148-0.956-6.952-2.434c0,0,0.749-0.89,1.162-1.375c0.6-0.709,1.411-0.771,2.025-0.487
		c1.747,0.833,2.52,1.167,3.808,1.167c1.215,0,1.977-0.455,1.977-1.326c0-2.691-8.038-1.085-8.038-6.47
		c0-2.804,2.411-4.584,6.062-4.584C92.117,122.958,94.354,123.63,95.918,124.651z"/>
	<path fill="#58595B" d="M113.167,130.668c0,4.43-3.52,7.799-8.231,7.799c-4.694,0-8.212-3.346-8.212-7.799
		c0-4.432,3.518-7.712,8.212-7.712C109.647,122.956,113.167,126.26,113.167,130.668z M100.677,130.691
		c0,2.563,1.978,4.538,4.302,4.538c2.344,0,4.211-1.976,4.211-4.538c0-2.564-1.867-4.498-4.211-4.498
		C102.631,126.193,100.677,128.127,100.677,130.691z"/>
	<path fill="#58595B" d="M124.243,138.293h-10.314v-15.205c0,0,1.405-0.006,1.955-0.006c0.909,0,1.909,0.693,1.909,1.929
		c0,2.639,0,9.415,0,9.415s2.938,0,4.828,0c0.725,0,1.618,0.636,1.618,1.596C124.239,136.463,124.243,138.293,124.243,138.293z"/>
	<path fill="#58595B" d="M35.952,125.436c0,0-0.75,0.824-1.189,1.342c-0.616,0.729-1.625,0.886-2.343,0.333
		c-0.927-0.812-2.06-0.917-2.654-0.917c-2.411,0-4.235,1.913-4.235,4.411c0,2.541,1.889,4.625,4.301,4.625
		c0.833,0,1.72-0.238,2.535-0.89c0.656-0.443,1.44-0.405,1.976,0.049c0.759,0.643,1.7,1.463,1.7,1.463
		c-1.902,2.005-4.234,2.615-6.471,2.615c-4.583,0-7.995-3.369-7.995-7.82c0-4.387,3.499-7.69,8.125-7.69
		C31.959,122.956,34.179,123.625,35.952,125.436z"/>
</g>
<g>
	<polygon fill="#FFCA05" points="110.614,46.229 110.611,46.226 110.611,46.229 	"/>
	<g>
		<path fill="#F59579" d="M35.646,77.292l-0.006-0.006h-0.003v-0.003l0,0v21.959h21.959l-0.009-0.007
			C47.679,95.123,39.756,87.199,35.646,77.292z"/>
		<path fill="#F59579" d="M88.661,99.235l-0.01,0.007h21.96V77.283l-0.013,0.009C106.488,87.199,98.568,95.123,88.661,99.235z"/>
		<path fill="#F59579" d="M57.586,24.277l0.005-0.006v-0.003v0.003l0.004-0.003H35.637v21.958l0.01-0.01
			C39.756,36.309,47.679,28.384,57.586,24.277z"/>
		<path fill="#F59579" d="M110.599,46.216l0.013,0.01V24.268h-21.96l0.01,0.009C98.568,28.384,106.488,36.309,110.599,46.216z"/>
		<path fill="#F59579" d="M73.123,21.188c5.498,0,10.734,1.101,15.516,3.08h0.007l0.003-0.003v0.003h0.003L73.123,8.739
			L57.596,24.268h0.013C62.392,22.289,67.626,21.188,73.123,21.188z"/>
		<path fill="#F59579" d="M110.611,46.243c1.982,4.776,3.076,10.018,3.076,15.511c0,5.497-1.094,10.733-3.076,15.516v0.013
			l15.528-15.529l-15.525-15.526h-0.003V46.243z"/>
		<path fill="#F59579" d="M32.557,61.754c0-5.494,1.098-10.735,3.08-15.511v-0.018l-15.53,15.529l15.53,15.529v-0.013
			C33.654,72.487,32.557,67.251,32.557,61.754z"/>
		<path fill="#F59579" d="M73.123,102.322c-5.497,0-10.735-1.1-15.515-3.08h-0.013l15.527,15.53L88.62,99.277l-0.022-0.02
			C83.831,101.229,78.604,102.322,73.123,102.322z"/>
	</g>
	<polygon fill="#FFCA05" points="88.648,99.242 88.648,99.248 88.651,99.242 	"/>
	<polygon fill="#FFCA05" points="35.64,77.286 35.646,77.292 35.643,77.289 	"/>
	<polygon fill="#FFCA05" points="110.611,46.243 110.611,46.229 110.607,46.235 	"/>
	<polygon fill="#FFCA05" points="88.646,24.268 88.639,24.268 88.646,24.271 	"/>
	<polygon fill="#FFCA05" points="88.648,99.239 88.648,99.242 88.651,99.242 88.661,99.235 	"/>
	<polygon fill="#FFCA05" points="57.591,24.271 57.586,24.277 57.591,24.274 	"/>
	<path fill="#FFCA05" d="M110.602,77.283l0.006,0.003h-0.006l-0.003,0.006l0.013-0.009v-0.013
		C110.607,77.273,110.607,77.28,110.602,77.283z"/>
	<polygon fill="#FFCA05" points="35.646,46.216 35.637,46.226 35.64,46.226 	"/>
	<path fill="#FFCA05" d="M35.64,77.283c0-0.007-0.003-0.01-0.003-0.01v0.01l0,0H35.64z"/>
	<polygon fill="#FFCA05" points="57.598,99.239 57.596,99.242 57.596,99.239 57.586,99.235 57.596,99.242 57.608,99.242 	"/>
	<path fill="#FFCA05" d="M35.64,46.229l-0.003-0.003v0.018C35.637,46.238,35.64,46.235,35.64,46.229z"/>
	<polygon fill="#FFCA05" points="88.648,24.271 88.661,24.277 88.651,24.268 88.648,24.268 	"/>
	<path fill="#FFCA05" d="M110.607,46.229h0.004v-0.003l-0.013-0.01C110.602,46.219,110.602,46.226,110.607,46.229z"/>
	<polygon fill="#FFCA05" points="57.596,24.274 57.608,24.268 57.596,24.268 57.591,24.271 	"/>
	<g>
		<path fill="#EC1C24" d="M110.599,46.216c-4.11-9.907-12.03-17.832-21.938-21.938c-0.003-0.003-0.01-0.003-0.013-0.006v21.958
			h21.959C110.602,46.226,110.602,46.219,110.599,46.216z"/>
		<path fill="#EC1C24" d="M57.591,24.274c-0.003,0-0.003,0-0.005,0.003c-9.907,4.107-17.83,12.032-21.94,21.938
			c-0.003,0.003-0.003,0.007-0.006,0.01h21.951V24.274z"/>
		<path fill="#EC1C24" d="M88.648,77.286v21.953c0.003,0,0.01-0.004,0.013-0.004c9.907-4.112,17.827-12.036,21.938-21.943
			l0.003-0.006H88.648z"/>
		<path fill="#EC1C24" d="M88.639,24.268c-4.781-1.979-10.018-3.08-15.516-3.08c-5.497,0-10.731,1.101-15.515,3.08
			c-0.004,0-0.011,0.003-0.013,0.006l15.521,15.522l15.529-15.526C88.643,24.268,88.639,24.268,88.639,24.268z"/>
		<path fill="#EC1C24" d="M35.64,46.229c0,0-0.003,0.01-0.003,0.015c-1.982,4.776-3.08,10.018-3.08,15.511
			c0,5.497,1.098,10.733,3.08,15.516c0,0,0.003,0.006,0.003,0.013l15.513-15.518L35.64,46.229z"/>
		<path fill="#EC1C24" d="M110.611,46.243l-0.004-0.008L95.082,61.759l15.52,15.524c0.006-0.003,0.006-0.01,0.01-0.013
			c1.982-4.783,3.076-10.02,3.076-15.516C113.688,56.261,112.594,51.02,110.611,46.243z"/>
		<path fill="#EC1C24" d="M57.591,77.286H35.643c0,0,0,0.003,0.003,0.006c4.11,9.907,12.033,17.831,21.94,21.943
			c0.001,0,0.005,0,0.009,0.004L57.591,77.286z"/>
		<path fill="#EC1C24" d="M88.582,99.242L73.1,83.738L57.598,99.239c0.003,0,0.006,0.003,0.011,0.003
			c4.78,1.98,10.018,3.08,15.515,3.08c5.481,0,10.708-1.093,15.475-3.064L88.582,99.242z"/>
	</g>
	<polygon fill="#F05C22" points="88.648,24.265 88.646,24.268 88.648,24.268 	"/>
	<rect x="88.646" y="24.268" fill="#F05C22" width="0.003" height="0.003"/>
	<polygon fill="#F05C22" points="57.591,24.268 57.591,24.271 57.591,24.271 	"/>
	<rect x="57.591" y="24.273" fill="#F05C22" width="0.006" height="0"/>
	<path fill="#F6921E" d="M66.694,46.229h-0.006l-0.003,0.006C66.688,46.229,66.691,46.229,66.694,46.229z"/>
	<path fill="#F6921E" d="M57.591,68.178v0.035l0.027,0.025C57.608,68.219,57.601,68.197,57.591,68.178z"/>
	<polygon fill="#F6921E" points="57.598,55.321 57.591,55.327 57.591,55.332 	"/>
	<path fill="#F6921E" d="M79.542,77.286h0.013l0.007-0.006C79.555,77.283,79.549,77.283,79.542,77.286z"/>
	<polygon fill="#F6921E" points="88.648,68.194 88.648,68.194 88.648,68.194 	"/>
	<path fill="#F6921E" d="M66.625,77.251l0.03,0.035h0.05C66.675,77.273,66.651,77.268,66.625,77.251z"/>
	<polygon fill="#F05C22" points="110.611,46.229 110.614,46.229 110.611,46.229 	"/>
	<polygon fill="#F05C22" points="110.611,46.229 110.611,46.229 110.607,46.229 110.607,46.235 	"/>
	<polygon fill="#F05C22" points="57.596,99.242 57.598,99.239 57.596,99.239 	"/>
	<polygon fill="#F05C22" points="88.648,99.309 88.648,99.248 88.62,99.277 	"/>
	<path fill="#F05C22" d="M88.639,99.242c-0.012,0.006-0.026,0.01-0.041,0.016l0.022,0.02l0.028-0.029v-0.006H88.639z"/>
	<polygon fill="#F05C22" points="88.639,99.242 88.648,99.242 88.648,99.239 	"/>
	<path fill="#F05C22" d="M88.598,99.258c0.015-0.006,0.029-0.01,0.041-0.016h-0.057L88.598,99.258z"/>
	<polygon fill="#F05C22" points="110.607,77.286 110.602,77.283 110.602,77.286 	"/>
	<polygon fill="#F05C22" points="35.637,77.286 35.64,77.286 35.637,77.283 	"/>
	<rect x="35.638" y="77.282" fill="#F05C22" width="0.003" height="0.005"/>
	<g>
		<path fill="#670000" d="M88.648,55.321v-9.092h-9.094C83.659,47.93,86.942,51.212,88.648,55.321z"/>
		<path fill="#670000" d="M66.685,46.235l0.003-0.006l-9.097-0.003v9.102l0.006-0.006C59.302,51.215,62.581,47.936,66.685,46.235z"
			/>
		<path fill="#670000" d="M73.123,44.951c2.276,0,4.446,0.455,6.426,1.275l-6.432-6.429l-6.429,6.432h0.006
			C68.675,45.406,70.844,44.951,73.123,44.951z"/>
		<path fill="#670000" d="M88.648,68.194L88.648,68.194l6.434-6.436l-6.431-6.429c0.82,1.979,1.275,4.146,1.275,6.424
			C89.927,64.037,89.472,66.207,88.648,68.194z"/>
		<path fill="#670000" d="M73.123,78.556c-2.274,0-4.442-0.451-6.418-1.27h-0.05l6.445,6.452l6.455-6.452h-0.013
			C77.566,78.104,75.399,78.556,73.123,78.556z"/>
		<path fill="#670000" d="M88.648,68.194c-1.702,4.101-4.986,7.38-9.087,9.086l-0.007,0.006h9.094V68.194L88.648,68.194z"/>
		<path fill="#670000" d="M56.321,61.754c0-2.278,0.453-4.442,1.27-6.423v-0.004l-6.438,6.438l6.438,6.448v-0.035
			C56.774,66.198,56.321,64.03,56.321,61.754z"/>
		<path fill="#670000" d="M57.618,68.238l-0.027-0.025v9.073h9.063l-0.03-0.035C62.562,75.549,59.319,72.295,57.618,68.238z"/>
	</g>
	<polygon fill="#F05C22" points="35.64,46.226 35.637,46.226 35.64,46.229 	"/>
	<g>
		<polygon fill="#B9131A" points="73.117,39.797 79.549,46.226 79.554,46.229 88.648,46.229 88.648,24.271 88.646,24.271 		"/>
		<polygon fill="#B9131A" points="57.591,46.226 66.688,46.229 73.117,39.797 57.596,24.274 57.591,24.274 		"/>
		<polygon fill="#B9131A" points="88.648,55.321 88.651,55.33 95.082,61.759 110.607,46.235 110.607,46.229 88.648,46.229 		"/>
		<polygon fill="#B9131A" points="66.655,77.286 57.591,77.286 57.596,99.239 57.598,99.239 73.1,83.738 		"/>
		<polygon fill="#B9131A" points="88.648,77.286 79.555,77.286 73.1,83.738 88.582,99.242 88.639,99.242 88.648,99.239 		"/>
		<polygon fill="#B9131A" points="88.648,68.194 88.648,77.286 110.602,77.286 110.602,77.283 95.082,61.759 		"/>
		<polygon fill="#B9131A" points="57.591,77.286 57.591,68.213 51.153,61.765 35.64,77.283 35.643,77.286 		"/>
		<polygon fill="#B9131A" points="57.591,55.327 57.591,46.226 35.64,46.226 35.64,46.229 51.153,61.765 		"/>
	</g>
	<polygon fill="#FFFFFF" points="79.555,46.229 79.549,46.226 79.554,46.229 	"/>
	<polygon fill="#FFFFFF" points="88.651,55.33 88.648,55.321 88.648,55.322 	"/>
</g>
<g>
	<g>
		<path fill="#B9131A" d="M34.373,145.973c0,1.545-1.227,2.718-2.87,2.718c-1.636,0-2.862-1.166-2.862-2.718
			c0-1.544,1.227-2.688,2.862-2.688C33.146,143.284,34.373,144.435,34.373,145.973z M30.02,145.98c0,0.893,0.688,1.582,1.499,1.582
			c0.818,0,1.469-0.689,1.469-1.582c0-0.894-0.651-1.568-1.469-1.568S30.02,145.087,30.02,145.98z"/>
		<path fill="#B9131A" d="M58.63,145.973c0,1.545-1.226,2.718-2.87,2.718c-1.636,0-2.862-1.166-2.862-2.718
			c0-1.544,1.226-2.688,2.862-2.688C57.404,143.284,58.63,144.435,58.63,145.973z M54.276,145.98c0,0.893,0.689,1.582,1.5,1.582
			c0.818,0,1.47-0.689,1.47-1.582c0-0.894-0.652-1.568-1.47-1.568C54.958,144.412,54.276,145.087,54.276,145.98z"/>
		<path fill="#B9131A" d="M85.789,145.973c0,1.545-1.228,2.718-2.87,2.718c-1.635,0-2.861-1.166-2.861-2.718
			c0-1.544,1.227-2.688,2.861-2.688C84.562,143.284,85.789,144.435,85.789,145.973z M81.436,145.98c0,0.893,0.688,1.582,1.499,1.582
			c0.818,0,1.469-0.689,1.469-1.582c0-0.894-0.65-1.568-1.469-1.568S81.436,145.087,81.436,145.98z"/>
		<path fill="#B9131A" d="M89.541,143.33c1.665,0,2.816,1.075,2.816,2.65c0,1.567-1.167,2.649-2.87,2.649h-2.227v-5.3H89.541z
			 M88.608,147.557h0.962c0.826,0,1.416-0.638,1.416-1.57c0-0.938-0.62-1.581-1.477-1.581h-0.901V147.557z"/>
		<path fill="#B9131A" d="M111.715,148.63v-5.3h1.349v5.3H111.715z"/>
		<path fill="#B9131A" d="M126.53,145.973c0,1.545-1.226,2.718-2.869,2.718c-1.637,0-2.863-1.166-2.863-2.718
			c0-1.544,1.227-2.688,2.863-2.688C125.305,143.284,126.53,144.435,126.53,145.973z M122.177,145.98
			c0,0.893,0.689,1.582,1.499,1.582c0.818,0,1.469-0.689,1.469-1.582c0-0.894-0.65-1.568-1.469-1.568
			S122.177,145.087,122.177,145.98z"/>
	</g>
	<path fill="#B9131A" d="M45.449,147.578h-2.355v-1.068h2.529v-1.06h-2.529v-1.053h2.271c0.293,0,0.531-0.237,0.531-0.53v-0.529
		h-0.531h-3.619v5.3h3.703h0.53v-0.53C45.979,147.814,45.742,147.578,45.449,147.578z"/>
	<path fill="#B9131A" d="M118.944,143.322c-0.262,0-0.488,0.159-0.585,0.385l-1.221,3.515l-1.217-3.5
		c-0.101-0.234-0.335-0.399-0.607-0.399h-0.971l2.061,5.3h1.394l2.082-5.3H118.944z"/>
	<path fill="#B9131A" d="M26.358,146.872c0.621-0.31,0.963-0.893,0.963-1.702c0-1.182-0.804-1.848-2.205-1.848h-2.37v5.3h0.673
		c0.372,0,0.674-0.301,0.674-0.674v-0.817h1.022h0.038l0.622,1.177c0.109,0.188,0.312,0.314,0.545,0.314h1.15L26.358,146.872z
		 M25.117,146.07h-1.022v-1.688h1.022c0.583,0,0.924,0.28,0.924,0.833C26.041,145.775,25.699,146.07,25.117,146.07z"/>
	<path fill="#B9131A" d="M109.835,143.317h-3.438h-0.545v0.547c0,0.301,0.244,0.544,0.545,0.544h1.038v4.218h1.347v-4.218h1.054
		c0.302,0,0.545-0.243,0.545-0.544v-0.547H109.835z"/>
	<path fill="#B9131A" d="M19.146,143.322h-2.31v4.627v0.673h0.674c0.373,0,0.674-0.301,0.674-0.673v-0.818h0.961
		c1.355,0,2.136-0.719,2.136-1.961C21.282,143.988,20.502,143.322,19.146,143.322z M19.079,146.07h-0.894v-1.688h0.894
		c0.59,0,0.932,0.28,0.932,0.833C20.01,145.775,19.669,146.07,19.079,146.07z"/>
	<path fill="#B9131A" d="M77.774,146.872c0.621-0.31,0.964-0.893,0.964-1.702c0-1.182-0.805-1.848-2.205-1.848h-2.37v5.3h0.673
		c0.372,0,0.675-0.301,0.675-0.674v-0.817h1.021h0.038l0.621,1.177c0.11,0.188,0.313,0.314,0.546,0.314h1.149L77.774,146.872z
		 M76.533,146.07h-1.021v-1.688h1.021c0.583,0,0.925,0.28,0.925,0.833C77.458,145.775,77.116,146.07,76.533,146.07z"/>
	<path fill="#B9131A" d="M70.563,143.322h-2.309v4.627v0.673h0.673c0.373,0,0.674-0.301,0.674-0.673v-0.818h0.961
		c1.355,0,2.136-0.719,2.136-1.961C72.699,143.988,71.918,143.322,70.563,143.322z M70.496,146.07h-0.894v-1.688h0.894
		c0.59,0,0.931,0.28,0.931,0.833C71.427,145.775,71.086,146.07,70.496,146.07z"/>
	<path fill="#B9131A" d="M40.398,144.137c0,0-0.261,0.287-0.414,0.468c-0.215,0.253-0.565,0.308-0.815,0.115
		c-0.322-0.282-0.716-0.318-0.923-0.318c-0.838,0-1.473,0.665-1.473,1.533c0,0.884,0.658,1.609,1.496,1.609
		c0.29,0,0.599-0.083,0.882-0.31c0.228-0.153,0.501-0.141,0.688,0.017c0.264,0.225,0.591,0.509,0.591,0.509
		c-0.661,0.697-1.472,0.91-2.25,0.91c-1.594,0-2.78-1.172-2.78-2.72c0-1.526,1.216-2.674,2.826-2.674
		C39.01,143.276,39.781,143.508,40.398,144.137z"/>
	<path fill="#B9131A" d="M104.951,144.137c0,0-0.261,0.287-0.413,0.468c-0.214,0.253-0.565,0.308-0.815,0.115
		c-0.322-0.282-0.715-0.318-0.922-0.318c-0.839,0-1.474,0.665-1.474,1.533c0,0.884,0.657,1.609,1.496,1.609
		c0.29,0,0.598-0.083,0.882-0.31c0.228-0.153,0.5-0.141,0.688,0.017c0.264,0.225,0.591,0.509,0.591,0.509
		c-0.662,0.697-1.474,0.91-2.251,0.91c-1.594,0-2.78-1.172-2.78-2.72c0-1.526,1.217-2.674,2.826-2.674
		C103.563,143.276,104.335,143.508,104.951,144.137z"/>
	<path fill="#B9131A" d="M51.737,143.859c0,0-0.255,0.295-0.445,0.519c-0.211,0.248-0.456,0.322-0.75,0.186
		c-0.339-0.162-0.708-0.203-1.009-0.203c-0.348,0-0.583,0.127-0.583,0.386c0,0.916,2.801,0.394,2.801,2.309
		c0,1.061-0.938,1.62-2.12,1.62c-0.886,0-1.794-0.333-2.423-0.848c0,0,0.262-0.311,0.404-0.479c0.21-0.247,0.493-0.269,0.707-0.169
		c0.609,0.29,0.878,0.406,1.327,0.406c0.424,0,0.689-0.159,0.689-0.462c0-0.938-2.801-0.378-2.801-2.256
		c0-0.977,0.841-1.598,2.112-1.598C50.412,143.27,51.192,143.504,51.737,143.859z"/>
	<path fill="#B9131A" d="M64.229,143.859c0,0-0.255,0.295-0.444,0.519c-0.211,0.248-0.457,0.322-0.751,0.186
		c-0.339-0.162-0.707-0.203-1.009-0.203c-0.347,0-0.582,0.127-0.582,0.386c0,0.916,2.801,0.394,2.801,2.309
		c0,1.061-0.938,1.62-2.12,1.62c-0.887,0-1.795-0.333-2.423-0.848c0,0,0.261-0.311,0.405-0.479c0.21-0.247,0.493-0.269,0.707-0.169
		c0.609,0.29,0.878,0.406,1.327,0.406c0.424,0,0.688-0.159,0.688-0.462c0-0.938-2.801-0.378-2.801-2.256
		c0-0.977,0.84-1.598,2.113-1.598C62.904,143.27,63.684,143.504,64.229,143.859z"/>
	<path fill="#B9131A" d="M132.13,143.859c0,0-0.256,0.295-0.444,0.519c-0.212,0.248-0.456,0.322-0.752,0.186
		c-0.338-0.162-0.707-0.203-1.008-0.203c-0.348,0-0.583,0.127-0.583,0.386c0,0.916,2.802,0.394,2.802,2.309
		c0,1.061-0.938,1.62-2.12,1.62c-0.887,0-1.795-0.333-2.423-0.848c0,0,0.261-0.311,0.405-0.479c0.209-0.247,0.491-0.269,0.705-0.169
		c0.61,0.29,0.879,0.406,1.327,0.406c0.425,0,0.689-0.159,0.689-0.462c0-0.938-2.801-0.378-2.801-2.256
		c0-0.977,0.84-1.598,2.111-1.598C130.805,143.27,131.584,143.504,132.13,143.859z"/>
	<path fill="#B9131A" d="M98.599,146.403c0,1.4-0.932,2.287-2.415,2.287c-1.492,0-2.444-0.887-2.444-2.287v-3.073
		c0,0,0.473,0,0.673,0c0.513,0,0.674,0.449,0.674,0.675c0,0.224,0,2.398,0,2.398c0,0.72,0.462,1.158,1.105,1.158
		c0.636,0,1.067-0.438,1.067-1.158c0,0,0-2.175,0-2.413c0-0.239,0.214-0.66,0.651-0.66c0.465,0,0.688,0,0.688,0V146.403z"/>
</g>
</svg>
