<?xml version="1.0" encoding="utf-8"?>
<!-- Generator: Adobe Illustrator 16.0.0, SVG Export Plug-In . SVG Version: 6.00 Build 0)  -->
<!DOCTYPE svg PUBLIC "-//W3C//DTD SVG 1.1//EN" "http://www.w3.org/Graphics/SVG/1.1/DTD/svg11.dtd">
<svg version="1.1" id="Capa_1" xmlns="http://www.w3.org/2000/svg" xmlns:xlink="http://www.w3.org/1999/xlink" x="0px" y="0px"
	 width="148px" height="149.666px" viewBox="0 0 148 149.666" enable-background="new 0 0 148 149.666" xml:space="preserve">
<path fill="#F9A51A" d="M74.68,82.538l0.002,0.002l0.014-0.012V82.51C74.689,82.521,74.688,82.528,74.68,82.538z"/>
<polygon fill="#F9A51A" points="74.688,82.542 74.689,82.54 74.688,82.54 "/>
<polygon fill="#F9A51A" points="74.688,82.54 74.689,82.54 74.688,82.538 "/>
<path fill="#F9A51A" d="M72.905,90.104l0.001,0.002l0.01-0.008v-0.015C72.912,90.093,72.911,90.099,72.905,90.104z"/>
<polygon fill="#F9A51A" points="72.911,90.108 72.912,90.106 72.911,90.106 "/>
<polygon fill="#F9A51A" points="72.911,90.106 72.912,90.106 72.911,90.104 "/>
<path fill="#F9A51A" d="M102.682,88.537l0.002,0.002l0.012-0.013V88.51C102.689,88.521,102.688,88.526,102.682,88.537z"/>
<polygon fill="#F9A51A" points="102.688,88.541 102.689,88.539 102.688,88.539 "/>
<polygon fill="#F9A51A" points="102.688,88.539 102.689,88.539 102.688,88.537 "/>
<g>
	<g>
		<path fill="#58595B" d="M56.735,142.127c0,3.305-2.35,5.494-5.854,5.494c-3.522,0-5.872-2.189-5.872-5.494
			c0-3.306,2.35-5.476,5.872-5.476C54.386,136.651,56.735,138.821,56.735,142.127z M48.474,142.166c0,1.672,0.974,2.787,2.407,2.787
			c1.415,0,2.39-1.115,2.39-2.787c0-1.652-0.975-2.787-2.39-2.787C49.447,139.379,48.474,140.514,48.474,142.166z"/>
		<path fill="#58595B" d="M91.596,138.581l-0.002-0.002c0-0.013,0.002-0.025,0.002-0.037c0-0.951-0.771-1.773-1.723-1.773H88.15
			v10.733h3.445v-5.516c0.18-1.514,1.494-2.45,3.484-2.271v-3.106C93.547,136.629,92.332,137.325,91.596,138.581z"/>
		<path fill="#58595B" d="M82.51,136.618c-1.303,0-2.459,0.233-3.637,0.658c-0.104,0.024-0.203,0.062-0.295,0.11
			c-0.344,0.133-0.689,0.281-1.043,0.445l0.484,1.125c0.188,0.443,0.627,0.755,1.139,0.755c0.158,0,0.311-0.031,0.451-0.086
			c0.762-0.274,1.498-0.421,2.104-0.421c1.395,0,2.09,0.637,2.09,1.691v0.158h-2.826c-2.666,0.021-4.119,1.215-4.119,3.244
			c0,1.971,1.393,3.363,3.682,3.363c1.451,0,2.586-0.477,3.281-1.391c0.002,0.68,0.555,1.23,1.234,1.23l0,0h2.131v-7.004
			C87.166,138.071,85.455,136.618,82.51,136.618z M83.803,143.861c-0.219,0.875-1.135,1.473-2.209,1.473
			c-0.955,0-1.512-0.498-1.512-1.273c0-0.797,0.518-1.154,1.551-1.154h2.17V143.861z"/>
		<path fill="#58595B" d="M32.376,136.611c-1.592,0.02-2.826,0.656-3.584,1.911v0.001c0-0.011,0-0.021,0-0.031
			c0-0.951-0.771-1.722-1.723-1.722h-1.722v10.731h3.444v-5.674c0.141-1.275,0.938-2.171,2.191-2.171
			c1.154,0,1.891,0.776,1.891,2.03l0.002,4.117c0,0.938,0.76,1.697,1.697,1.697c0.01,0,1.727,0,1.727,0v-6.77
			C36.3,138.224,34.744,136.611,32.376,136.611z"/>
		<path fill="#58595B" d="M42.868,135.297c0.092,0,0.189,0.009,0.287,0.025c0.328,0.056,0.678,0.198,0.967,0.413l1.215-2.409
			c-0.816-0.479-1.951-0.757-3.007-0.757c-2.31,0-4.101,1.314-4.101,3.684v0.358v0.637v2.27v1.848v6.137h3.404v-7.984h1.295l0,0
			c0.625,0,1.133-0.508,1.133-1.135v-1.135h-2.428v-0.776C41.634,135.676,42.171,135.277,42.868,135.297z"/>
		<path fill="#58595B" d="M23.419,135.337c0-0.979-0.793-1.772-1.772-1.772h-1.772v13.938h3.545V135.337L23.419,135.337z"/>
		<path fill="#58595B" d="M102.994,140.891l3.943-4.12h-3.293l-0.004-0.001l-0.002,0.001h-0.008l0,0
			c-0.406,0.003-0.77,0.18-1.025,0.458l-0.002-0.001l-3.113,3.306v-6.082l0,0c0-0.952-0.771-1.723-1.723-1.723h-1.723v14.773h3.445
			v-2.928l1.154-1.213l1.822,3.238c0.291,0.535,0.857,0.898,1.51,0.898l0.002,0.004h3.078L102.994,140.891z"/>
		<path fill="#58595B" d="M72.031,136.617c-1.771,0.02-3.086,0.836-3.781,2.428c-0.537-1.513-1.83-2.428-3.582-2.428
			c-1.572,0.02-2.807,0.656-3.543,1.931c0,0,0-0.043,0-0.064c0-0.944-0.766-1.711-1.711-1.711c-0.021,0-1.714,0.004-1.714,0.004
			v10.726h1.776l0.002-0.004c0.914-0.033,1.646-0.785,1.646-1.707v-3.602c0-1.453,0.816-2.508,2.129-2.548
			c1.135,0,1.83,0.776,1.83,2.05v5.811h3.443v-5.312c0-1.453,0.797-2.508,2.09-2.548c1.135,0,1.852,0.776,1.852,2.05v4.1
			c0,0.945,0.766,1.711,1.711,1.711h1.713v-6.766C75.893,138.229,74.379,136.617,72.031,136.617z"/>
		<path fill="#58595B" d="M113.133,136.651c-3.324,0-5.594,2.189-5.594,5.515c0,3.266,2.189,5.455,5.693,5.455
			c1.279,0,2.406-0.295,3.34-0.826c0.051-0.025,0.1-0.053,0.146-0.084c0.447-0.273,0.846-0.602,1.193-0.98l-1.047-1.023
			c-0.229-0.209-0.533-0.34-0.867-0.34c-0.236,0-0.457,0.066-0.646,0.176c-0.561,0.336-1.186,0.51-1.82,0.51
			c-1.273,0-2.189-0.717-2.527-1.99h7.545C118.789,139.14,116.918,136.651,113.133,136.651z M110.943,141.211
			c0.219-1.295,1.035-2.171,2.23-2.171c1.234,0,2.07,0.856,2.07,2.171H110.943z"/>
		<path fill="#58595B" d="M125.637,145.801h-0.002c-0.16-0.541-0.66-0.936-1.252-0.936c-0.068,0-0.133,0.008-0.199,0.018l0,0
			c-0.082,0.012-0.16,0.018-0.234,0.018c-0.637,0.02-0.994-0.338-0.994-1.174v-4.194h1.67c0.625,0,1.133-0.507,1.133-1.133v-1.134
			h-2.803v-1.252c0-0.944-0.766-1.71-1.711-1.71h-1.709v1.264v1.719v2.246v2.884v1.848c0,2.227,1.49,3.4,3.559,3.4
			c1.033,0,2.088-0.279,2.863-0.736L125.637,145.801z"/>
	</g>
</g>
<g>
	<polygon fill="none" points="73.998,47.545 50.892,61.782 50.892,61.786 73.998,76.021 97.111,61.782 74,47.545 	"/>
	<polygon fill="none" stroke="#848484" stroke-width="0.5823" stroke-miterlimit="10" points="50.892,33.306 50.865,33.322 
		50.892,33.338 	"/>
	<polygon fill="#9F2D32" points="27.778,47.545 27.778,76.021 50.888,61.784 	"/>
	<polygon fill="none" stroke="#848484" stroke-width="0.5823" stroke-miterlimit="10" points="97.267,61.879 97.267,61.686 
		97.111,61.782 	"/>
	<polygon fill="#EC1C24" points="97.267,61.686 97.267,61.879 120.222,76.018 120.222,47.545 	"/>
	<polygon fill="#9F2D32" points="120.222,47.545 97.267,33.406 97.267,61.686 	"/>
	<polygon fill="#9F2D32" points="50.892,33.338 50.892,61.782 73.998,47.545 	"/>
	<polygon fill="#EC1C24" points="73.998,47.545 74,47.545 97.111,61.782 97.267,61.686 97.267,33.406 73.998,47.542 	"/>
	<polygon fill="#EC1C24" points="73.998,47.545 73.998,47.542 74,19.072 50.892,33.306 50.892,33.338 	"/>
	<polygon fill="#9F2D32" points="97.267,33.406 74,19.072 73.998,47.542 	"/>
	<polygon fill="#EC1C24" points="50.892,61.782 50.892,33.338 50.865,33.322 27.778,47.545 50.888,61.784 	"/>
	<polygon fill="#EC1C24" points="97.111,61.782 73.998,76.021 97.267,90.16 97.267,61.879 	"/>
	<polygon fill="#9F2D32" points="73.998,104.495 97.267,90.16 73.998,76.021 	"/>
	<polygon fill="#EC1C24" points="50.892,90.16 50.892,90.26 73.998,104.495 73.998,76.021 	"/>
	<polygon fill="#EC1C24" points="50.892,61.786 50.888,61.784 27.778,76.021 50.892,90.26 50.892,90.16 	"/>
	<polygon fill="#9F2D32" points="97.267,90.16 120.222,76.018 97.267,61.879 	"/>
	<polygon fill="#9F2D32" points="50.892,90.16 73.998,76.021 50.892,61.786 	"/>
	<polygon fill="none" stroke="#848484" stroke-width="0.5823" stroke-miterlimit="10" points="50.888,61.784 50.892,61.786 
		50.892,61.782 	"/>
</g>
<polygon fill="none" points="92.938,139.963 92.938,139.963 92.938,139.963 "/>
<polygon fill="none" points="111.84,139.869 111.779,139.914 111.84,139.963 "/>
</svg>
